<svg preserveAspectRatio="none" overflow="visible" style="display: block;" width="32.2917" height="42.7083" viewBox="0 0 32.2917 42.7083" fill="none" xmlns="http://www.w3.org/2000/svg">
<g id="Profile 1">
<g id="Vector">
<path d="M16.1458 0C10.6805 0 6.25 4.43052 6.25 9.89583C6.25 15.3612 10.6805 19.7917 16.1458 19.7917C21.6112 19.7917 26.0417 15.3612 26.0417 9.89583C26.0417 4.43052 21.6112 0 16.1458 0Z" fill="url(#paint0_linear_0_125)"/>
<path d="M9.89583 22.9167C4.43052 22.9167 0 27.3472 0 32.8125C0 38.2778 4.43052 42.7083 9.89583 42.7083H22.3958C27.8612 42.7083 32.2917 38.2778 32.2917 32.8125C32.2917 27.3472 27.8612 22.9167 22.3958 22.9167H9.89583Z" fill="url(#paint1_linear_0_125)"/>
</g>
</g>
<defs>
<linearGradient id="paint0_linear_0_125" x1="16.1458" y1="0" x2="16.1458" y2="42.7083" gradientUnits="userSpaceOnUse">
<stop stop-color="#9DAEDA"/>
<stop offset="1" stop-color="#6E8EE7"/>
</linearGradient>
<linearGradient id="paint1_linear_0_125" x1="16.1458" y1="0" x2="16.1458" y2="42.7083" gradientUnits="userSpaceOnUse">
<stop stop-color="#9DAEDA"/>
<stop offset="1" stop-color="#6E8EE7"/>
</linearGradient>
</defs>
</svg>
